# xmcd
#
# Track frame offsets:
#	150
#	16551
#	26314
#	40170
#	52051
#	63707
#	77314
#	97808
#	119240
#	133172
#	148260
#	161630
#	173521
#	186076
#
# Disc length: 2661 seconds
#
# Revision: 1
# Processed by: cddbd v1.5.2PL0 Copyright (c) Steve Scherf et al.
# Submitted via: audiograbber 1.83.01
#
DISCID=b60a630e
DTITLE=George Jones and Merle Haggard - Kickin' Out The Footlights ... Again
DYEAR=2006
DGENRE=Country
TTITLE0=George Jones and Merle Haggard  - Footlights
TTITLE1=Merle Haggard  - The Race Is On
TTITLE2=George Jones - The Way I Am
TTITLE3=Merle Haggard   - She Thinks I Still Care
TTITLE4=George Jones - All My Friends Are Strangers  
TTITLE5=Merle Haggard - Things Have Gone To Pieces
TTITLE6=George Jones - I Think I'll Just Stay Here And Drink
TTITLE7=George Jones and Merle Haggard  - Born With The Blues
TTITLE8=George Jones and Merle Haggard  - Sick, Sober and Sorry
TTITLE9=Merle Haggard  - I Always Get Lucky With You
TTITLE10=George Jones   - Sing Me Back Home
TTITLE11=Merle Haggard  - The Window Up Above 
TTITLE12=George Jones   - You Take Me For Granted
TTITLE13=George Jones and Merle Haggard  - Don't Get Around Much Anymore
EXTD=
EXTT0=
EXTT1=
EXTT2=
EXTT3=
EXTT4=
EXTT5=
EXTT6=
EXTT7=
EXTT8=
EXTT9=
EXTT10=
EXTT11=
EXTT12=
EXTT13=
PLAYORDER=
